<?xml version="1.0"?>
<svg xmlns="http://www.w3.org/2000/svg" width="722.70" height="578.16" viewBox="0,0,722.70,578.16">
<desc>R SVG Plot!</desc>
<rect width="100%" height="100%" style="fill:#FFFFFF"/>
<polygon points="0.00 , 578.16 0.00 , 0.00 722.70 , 0.00 722.70 , 578.16 " style="stroke-width:1;stroke:#FFFFFF;fill:#FFFFFF;stroke-opacity:0.000000;fill-opacity:1.000000" />
<text transform="translate(16.55,505.64) "  style="font-size:18" >0%</text>
<text transform="translate(14.33,412.58) "  style="font-size:18" >5%</text>
<text transform="translate(9.38,319.52) "  style="font-size:18" >10%</text>
<text transform="translate(9.38,226.46) "  style="font-size:18" >15%</text>
<text transform="translate(9.38,133.40) "  style="font-size:18" >20%</text>
<text transform="translate(9.38,40.34) "  style="font-size:18" >25%</text>
<line x1="47.89" y1="497.39" x2="52.16" y2="497.39" style="stroke-width:1;stroke:#7F7F7F;fill:#000000;stroke-opacity:1.000000;fill-opacity:0.000000"/>
<line x1="47.89" y1="404.33" x2="52.16" y2="404.33" style="stroke-width:1;stroke:#7F7F7F;fill:#000000;stroke-opacity:1.000000;fill-opacity:0.000000"/>
<line x1="47.89" y1="311.27" x2="52.16" y2="311.27" style="stroke-width:1;stroke:#7F7F7F;fill:#000000;stroke-opacity:1.000000;fill-opacity:0.000000"/>
<line x1="47.89" y1="218.21" x2="52.16" y2="218.21" style="stroke-width:1;stroke:#7F7F7F;fill:#000000;stroke-opacity:1.000000;fill-opacity:0.000000"/>
<line x1="47.89" y1="125.15" x2="52.16" y2="125.15" style="stroke-width:1;stroke:#7F7F7F;fill:#000000;stroke-opacity:1.000000;fill-opacity:0.000000"/>
<line x1="47.89" y1="32.09" x2="52.16" y2="32.09" style="stroke-width:1;stroke:#7F7F7F;fill:#000000;stroke-opacity:1.000000;fill-opacity:0.000000"/>
<polygon points="52.16 , 520.50 52.16 , 12.05 710.65 , 12.05 710.65 , 520.50 " style="stroke-width:1;stroke:#FFFFFF;fill:#E5E5E5;stroke-opacity:0.000000;fill-opacity:1.000000" />
<polyline points="52.16 , 450.86 710.65 , 450.86 " style="stroke-width:0;stroke:#F2F2F2;fill:#000000;stroke-opacity:1.000000;fill-opacity:0.000000"/>
<polyline points="52.16 , 357.80 710.65 , 357.80 " style="stroke-width:0;stroke:#F2F2F2;fill:#000000;stroke-opacity:1.000000;fill-opacity:0.000000"/>
<polyline points="52.16 , 264.74 710.65 , 264.74 " style="stroke-width:0;stroke:#F2F2F2;fill:#000000;stroke-opacity:1.000000;fill-opacity:0.000000"/>
<polyline points="52.16 , 171.68 710.65 , 171.68 " style="stroke-width:0;stroke:#F2F2F2;fill:#000000;stroke-opacity:1.000000;fill-opacity:0.000000"/>
<polyline points="52.16 , 78.62 710.65 , 78.62 " style="stroke-width:0;stroke:#F2F2F2;fill:#000000;stroke-opacity:1.000000;fill-opacity:0.000000"/>
<polyline points="52.16 , 497.39 710.65 , 497.39 " style="stroke-width:1;stroke:#FFFFFF;fill:#000000;stroke-opacity:1.000000;fill-opacity:0.000000"/>
<polyline points="52.16 , 404.33 710.65 , 404.33 " style="stroke-width:1;stroke:#FFFFFF;fill:#000000;stroke-opacity:1.000000;fill-opacity:0.000000"/>
<polyline points="52.16 , 311.27 710.65 , 311.27 " style="stroke-width:1;stroke:#FFFFFF;fill:#000000;stroke-opacity:1.000000;fill-opacity:0.000000"/>
<polyline points="52.16 , 218.21 710.65 , 218.21 " style="stroke-width:1;stroke:#FFFFFF;fill:#000000;stroke-opacity:1.000000;fill-opacity:0.000000"/>
<polyline points="52.16 , 125.15 710.65 , 125.15 " style="stroke-width:1;stroke:#FFFFFF;fill:#000000;stroke-opacity:1.000000;fill-opacity:0.000000"/>
<polyline points="52.16 , 32.09 710.65 , 32.09 " style="stroke-width:1;stroke:#FFFFFF;fill:#000000;stroke-opacity:1.000000;fill-opacity:0.000000"/>
<polyline points="72.74 , 520.50 72.74 , 12.04 " style="stroke-width:1;stroke:#FFFFFF;fill:#000000;stroke-opacity:1.000000;fill-opacity:0.000000"/>
<polyline points="107.03 , 520.50 107.03 , 12.04 " style="stroke-width:1;stroke:#FFFFFF;fill:#000000;stroke-opacity:1.000000;fill-opacity:0.000000"/>
<polyline points="141.33 , 520.50 141.33 , 12.04 " style="stroke-width:1;stroke:#FFFFFF;fill:#000000;stroke-opacity:1.000000;fill-opacity:0.000000"/>
<polyline points="175.63 , 520.50 175.63 , 12.04 " style="stroke-width:1;stroke:#FFFFFF;fill:#000000;stroke-opacity:1.000000;fill-opacity:0.000000"/>
<polyline points="209.92 , 520.50 209.92 , 12.04 " style="stroke-width:1;stroke:#FFFFFF;fill:#000000;stroke-opacity:1.000000;fill-opacity:0.000000"/>
<polyline points="244.22 , 520.50 244.22 , 12.04 " style="stroke-width:1;stroke:#FFFFFF;fill:#000000;stroke-opacity:1.000000;fill-opacity:0.000000"/>
<polyline points="278.52 , 520.50 278.52 , 12.04 " style="stroke-width:1;stroke:#FFFFFF;fill:#000000;stroke-opacity:1.000000;fill-opacity:0.000000"/>
<polyline points="312.81 , 520.50 312.81 , 12.04 " style="stroke-width:1;stroke:#FFFFFF;fill:#000000;stroke-opacity:1.000000;fill-opacity:0.000000"/>
<polyline points="347.11 , 520.50 347.11 , 12.04 " style="stroke-width:1;stroke:#FFFFFF;fill:#000000;stroke-opacity:1.000000;fill-opacity:0.000000"/>
<polyline points="381.41 , 520.50 381.41 , 12.04 " style="stroke-width:1;stroke:#FFFFFF;fill:#000000;stroke-opacity:1.000000;fill-opacity:0.000000"/>
<polyline points="415.70 , 520.50 415.70 , 12.04 " style="stroke-width:1;stroke:#FFFFFF;fill:#000000;stroke-opacity:1.000000;fill-opacity:0.000000"/>
<polyline points="450.00 , 520.50 450.00 , 12.04 " style="stroke-width:1;stroke:#FFFFFF;fill:#000000;stroke-opacity:1.000000;fill-opacity:0.000000"/>
<polyline points="484.30 , 520.50 484.30 , 12.04 " style="stroke-width:1;stroke:#FFFFFF;fill:#000000;stroke-opacity:1.000000;fill-opacity:0.000000"/>
<polyline points="518.59 , 520.50 518.59 , 12.04 " style="stroke-width:1;stroke:#FFFFFF;fill:#000000;stroke-opacity:1.000000;fill-opacity:0.000000"/>
<polyline points="552.89 , 520.50 552.89 , 12.04 " style="stroke-width:1;stroke:#FFFFFF;fill:#000000;stroke-opacity:1.000000;fill-opacity:0.000000"/>
<polyline points="587.19 , 520.50 587.19 , 12.04 " style="stroke-width:1;stroke:#FFFFFF;fill:#000000;stroke-opacity:1.000000;fill-opacity:0.000000"/>
<polyline points="621.48 , 520.50 621.48 , 12.04 " style="stroke-width:1;stroke:#FFFFFF;fill:#000000;stroke-opacity:1.000000;fill-opacity:0.000000"/>
<polyline points="655.78 , 520.50 655.78 , 12.04 " style="stroke-width:1;stroke:#FFFFFF;fill:#000000;stroke-opacity:1.000000;fill-opacity:0.000000"/>
<polyline points="690.08 , 520.50 690.08 , 12.04 " style="stroke-width:1;stroke:#FFFFFF;fill:#000000;stroke-opacity:1.000000;fill-opacity:0.000000"/>
<rect x="57.30" y="495.96" width="30.87" height="1.43" style="stroke-width:1;stroke:#FFFFFF;fill:#333333;stroke-opacity:0.000000;fill-opacity:1.000000" />
<rect x="91.60" y="489.68" width="30.87" height="7.71" style="stroke-width:1;stroke:#FFFFFF;fill:#333333;stroke-opacity:0.000000;fill-opacity:1.000000" />
<rect x="125.90" y="459.18" width="30.87" height="38.21" style="stroke-width:1;stroke:#FFFFFF;fill:#333333;stroke-opacity:0.000000;fill-opacity:1.000000" />
<rect x="160.19" y="377.12" width="30.87" height="120.27" style="stroke-width:1;stroke:#FFFFFF;fill:#333333;stroke-opacity:0.000000;fill-opacity:1.000000" />
<rect x="194.49" y="220.50" width="30.87" height="276.89" style="stroke-width:1;stroke:#FFFFFF;fill:#333333;stroke-opacity:0.000000;fill-opacity:1.000000" />
<rect x="228.79" y="48.45" width="30.87" height="448.94" style="stroke-width:1;stroke:#FFFFFF;fill:#333333;stroke-opacity:0.000000;fill-opacity:1.000000" />
<rect x="263.08" y="35.16" width="30.87" height="462.23" style="stroke-width:1;stroke:#FFFFFF;fill:#333333;stroke-opacity:0.000000;fill-opacity:1.000000" />
<rect x="297.38" y="192.69" width="30.87" height="304.70" style="stroke-width:1;stroke:#FFFFFF;fill:#333333;stroke-opacity:0.000000;fill-opacity:1.000000" />
<rect x="331.68" y="359.03" width="30.87" height="138.36" style="stroke-width:1;stroke:#FFFFFF;fill:#333333;stroke-opacity:0.000000;fill-opacity:1.000000" />
<rect x="365.97" y="450.97" width="30.87" height="46.42" style="stroke-width:1;stroke:#FFFFFF;fill:#333333;stroke-opacity:0.000000;fill-opacity:1.000000" />
<rect x="400.27" y="484.60" width="30.87" height="12.79" style="stroke-width:1;stroke:#FFFFFF;fill:#333333;stroke-opacity:0.000000;fill-opacity:1.000000" />
<rect x="434.57" y="494.85" width="30.87" height="2.54" style="stroke-width:1;stroke:#FFFFFF;fill:#333333;stroke-opacity:0.000000;fill-opacity:1.000000" />
<rect x="468.86" y="496.83" width="30.87" height="0.56" style="stroke-width:1;stroke:#FFFFFF;fill:#333333;stroke-opacity:0.000000;fill-opacity:1.000000" />
<rect x="503.16" y="497.27" width="30.87" height="0.12" style="stroke-width:1;stroke:#FFFFFF;fill:#333333;stroke-opacity:0.000000;fill-opacity:1.000000" />
<rect x="537.46" y="497.35" width="30.87" height="0.04" style="stroke-width:1;stroke:#FFFFFF;fill:#333333;stroke-opacity:0.000000;fill-opacity:1.000000" />
<rect x="571.75" y="497.38" width="30.87" height="0.01" style="stroke-width:1;stroke:#FFFFFF;fill:#333333;stroke-opacity:0.000000;fill-opacity:1.000000" />
<rect x="606.05" y="497.38" width="30.87" height="0.01" style="stroke-width:1;stroke:#FFFFFF;fill:#333333;stroke-opacity:0.000000;fill-opacity:1.000000" />
<rect x="640.35" y="497.39" width="30.87" height="0.00" style="stroke-width:1;stroke:#FFFFFF;fill:#333333;stroke-opacity:0.000000;fill-opacity:1.000000" />
<rect x="674.64" y="497.39" width="30.87" height="0.00" style="stroke-width:1;stroke:#FFFFFF;fill:#333333;stroke-opacity:0.000000;fill-opacity:1.000000" />
<text transform="translate(67.79,544.12) "  style="font-size:18" >0</text>
<text transform="translate(102.08,544.12) "  style="font-size:18" >1</text>
<text transform="translate(136.38,544.12) "  style="font-size:18" >2</text>
<text transform="translate(170.68,544.12) "  style="font-size:18" >3</text>
<text transform="translate(204.97,544.12) "  style="font-size:18" >4</text>
<text transform="translate(239.27,544.12) "  style="font-size:18" >5</text>
<text transform="translate(273.57,544.12) "  style="font-size:18" >6</text>
<text transform="translate(307.86,544.12) "  style="font-size:18" >7</text>
<text transform="translate(342.16,544.12) "  style="font-size:18" >8</text>
<text transform="translate(376.46,544.12) "  style="font-size:18" >9</text>
<text transform="translate(405.80,544.12) "  style="font-size:18" >10</text>
<text transform="translate(440.10,544.12) "  style="font-size:18" >11</text>
<text transform="translate(474.40,544.12) "  style="font-size:18" >12</text>
<text transform="translate(508.69,544.12) "  style="font-size:18" >13</text>
<text transform="translate(542.99,544.12) "  style="font-size:18" >14</text>
<text transform="translate(577.29,544.12) "  style="font-size:18" >15</text>
<text transform="translate(611.58,544.12) "  style="font-size:18" >16</text>
<text transform="translate(645.88,544.12) "  style="font-size:18" >17</text>
<text transform="translate(680.18,544.12) "  style="font-size:18" >18</text>
<line x1="72.74" y1="524.77" x2="72.74" y2="520.50" style="stroke-width:1;stroke:#7F7F7F;fill:#000000;stroke-opacity:1.000000;fill-opacity:0.000000"/>
<line x1="107.03" y1="524.77" x2="107.03" y2="520.50" style="stroke-width:1;stroke:#7F7F7F;fill:#000000;stroke-opacity:1.000000;fill-opacity:0.000000"/>
<line x1="141.33" y1="524.77" x2="141.33" y2="520.50" style="stroke-width:1;stroke:#7F7F7F;fill:#000000;stroke-opacity:1.000000;fill-opacity:0.000000"/>
<line x1="175.63" y1="524.77" x2="175.63" y2="520.50" style="stroke-width:1;stroke:#7F7F7F;fill:#000000;stroke-opacity:1.000000;fill-opacity:0.000000"/>
<line x1="209.92" y1="524.77" x2="209.92" y2="520.50" style="stroke-width:1;stroke:#7F7F7F;fill:#000000;stroke-opacity:1.000000;fill-opacity:0.000000"/>
<line x1="244.22" y1="524.77" x2="244.22" y2="520.50" style="stroke-width:1;stroke:#7F7F7F;fill:#000000;stroke-opacity:1.000000;fill-opacity:0.000000"/>
<line x1="278.52" y1="524.77" x2="278.52" y2="520.50" style="stroke-width:1;stroke:#7F7F7F;fill:#000000;stroke-opacity:1.000000;fill-opacity:0.000000"/>
<line x1="312.81" y1="524.77" x2="312.81" y2="520.50" style="stroke-width:1;stroke:#7F7F7F;fill:#000000;stroke-opacity:1.000000;fill-opacity:0.000000"/>
<line x1="347.11" y1="524.77" x2="347.11" y2="520.50" style="stroke-width:1;stroke:#7F7F7F;fill:#000000;stroke-opacity:1.000000;fill-opacity:0.000000"/>
<line x1="381.41" y1="524.77" x2="381.41" y2="520.50" style="stroke-width:1;stroke:#7F7F7F;fill:#000000;stroke-opacity:1.000000;fill-opacity:0.000000"/>
<line x1="415.70" y1="524.77" x2="415.70" y2="520.50" style="stroke-width:1;stroke:#7F7F7F;fill:#000000;stroke-opacity:1.000000;fill-opacity:0.000000"/>
<line x1="450.00" y1="524.77" x2="450.00" y2="520.50" style="stroke-width:1;stroke:#7F7F7F;fill:#000000;stroke-opacity:1.000000;fill-opacity:0.000000"/>
<line x1="484.30" y1="524.77" x2="484.30" y2="520.50" style="stroke-width:1;stroke:#7F7F7F;fill:#000000;stroke-opacity:1.000000;fill-opacity:0.000000"/>
<line x1="518.59" y1="524.77" x2="518.59" y2="520.50" style="stroke-width:1;stroke:#7F7F7F;fill:#000000;stroke-opacity:1.000000;fill-opacity:0.000000"/>
<line x1="552.89" y1="524.77" x2="552.89" y2="520.50" style="stroke-width:1;stroke:#7F7F7F;fill:#000000;stroke-opacity:1.000000;fill-opacity:0.000000"/>
<line x1="587.19" y1="524.77" x2="587.19" y2="520.50" style="stroke-width:1;stroke:#7F7F7F;fill:#000000;stroke-opacity:1.000000;fill-opacity:0.000000"/>
<line x1="621.48" y1="524.77" x2="621.48" y2="520.50" style="stroke-width:1;stroke:#7F7F7F;fill:#000000;stroke-opacity:1.000000;fill-opacity:0.000000"/>
<line x1="655.78" y1="524.77" x2="655.78" y2="520.50" style="stroke-width:1;stroke:#7F7F7F;fill:#000000;stroke-opacity:1.000000;fill-opacity:0.000000"/>
<line x1="690.08" y1="524.77" x2="690.08" y2="520.50" style="stroke-width:1;stroke:#7F7F7F;fill:#000000;stroke-opacity:1.000000;fill-opacity:0.000000"/>
<text transform="translate(243.80,569.13) "  style="font-size:24" >Hydrogen bond acceptors</text>
</svg>
