<?xml version="1.0"?>
<svg xmlns="http://www.w3.org/2000/svg" width="722.70" height="578.16" viewBox="0,0,722.70,578.16">
<desc>R SVG Plot!</desc>
<rect width="100%" height="100%" style="fill:#FFFFFF"/>
<polygon points="0.00 , 0.00 722.70 , 0.00 722.70 , 578.16 0.00 , 578.16 " style="stroke-width:1;stroke:#FFFFFF;fill:#FFFFFF;stroke-opacity:0.000000;fill-opacity:1.000000" />
<text transform="translate(17.05,520.37) "  style="font-size:10" >0%</text>
<text transform="translate(14.59,382.52) "  style="font-size:10" >5%</text>
<text transform="translate(9.09,244.68) "  style="font-size:10" >10%</text>
<text transform="translate(9.09,106.83) "  style="font-size:10" >15%</text>
<line x1="33.22" y1="516.77" x2="37.49" y2="516.77" style="stroke-width:1;stroke:#7F7F7F;fill:#000000;stroke-opacity:1.000000;fill-opacity:0.000000"/>
<line x1="33.22" y1="378.92" x2="37.49" y2="378.92" style="stroke-width:1;stroke:#7F7F7F;fill:#000000;stroke-opacity:1.000000;fill-opacity:0.000000"/>
<line x1="33.22" y1="241.08" x2="37.49" y2="241.08" style="stroke-width:1;stroke:#7F7F7F;fill:#000000;stroke-opacity:1.000000;fill-opacity:0.000000"/>
<line x1="33.22" y1="103.23" x2="37.49" y2="103.23" style="stroke-width:1;stroke:#7F7F7F;fill:#000000;stroke-opacity:1.000000;fill-opacity:0.000000"/>
<polygon points="37.49 , 540.80 37.49 , 12.04 710.65 , 12.04 710.65 , 540.80 " style="stroke-width:1;stroke:#FFFFFF;fill:#E5E5E5;stroke-opacity:0.000000;fill-opacity:1.000000" />
<polyline points="37.49 , 447.85 710.65 , 447.85 " style="stroke-width:0;stroke:#F2F2F2;fill:#000000;stroke-opacity:1.000000;fill-opacity:0.000000"/>
<polyline points="37.49 , 310.00 710.65 , 310.00 " style="stroke-width:0;stroke:#F2F2F2;fill:#000000;stroke-opacity:1.000000;fill-opacity:0.000000"/>
<polyline points="37.49 , 172.16 710.65 , 172.16 " style="stroke-width:0;stroke:#F2F2F2;fill:#000000;stroke-opacity:1.000000;fill-opacity:0.000000"/>
<polyline points="37.49 , 34.31 710.65 , 34.31 " style="stroke-width:0;stroke:#F2F2F2;fill:#000000;stroke-opacity:1.000000;fill-opacity:0.000000"/>
<polyline points="49.30 , 540.80 49.30 , 12.04 " style="stroke-width:0;stroke:#F2F2F2;fill:#000000;stroke-opacity:1.000000;fill-opacity:0.000000"/>
<polyline points="210.18 , 540.80 210.18 , 12.04 " style="stroke-width:0;stroke:#F2F2F2;fill:#000000;stroke-opacity:1.000000;fill-opacity:0.000000"/>
<polyline points="371.06 , 540.80 371.06 , 12.04 " style="stroke-width:0;stroke:#F2F2F2;fill:#000000;stroke-opacity:1.000000;fill-opacity:0.000000"/>
<polyline points="531.95 , 540.80 531.95 , 12.04 " style="stroke-width:0;stroke:#F2F2F2;fill:#000000;stroke-opacity:1.000000;fill-opacity:0.000000"/>
<polyline points="692.83 , 540.80 692.83 , 12.04 " style="stroke-width:0;stroke:#F2F2F2;fill:#000000;stroke-opacity:1.000000;fill-opacity:0.000000"/>
<polyline points="37.49 , 516.77 710.65 , 516.77 " style="stroke-width:1;stroke:#FFFFFF;fill:#000000;stroke-opacity:1.000000;fill-opacity:0.000000"/>
<polyline points="37.49 , 378.92 710.65 , 378.92 " style="stroke-width:1;stroke:#FFFFFF;fill:#000000;stroke-opacity:1.000000;fill-opacity:0.000000"/>
<polyline points="37.49 , 241.08 710.65 , 241.08 " style="stroke-width:1;stroke:#FFFFFF;fill:#000000;stroke-opacity:1.000000;fill-opacity:0.000000"/>
<polyline points="37.49 , 103.23 710.65 , 103.23 " style="stroke-width:1;stroke:#FFFFFF;fill:#000000;stroke-opacity:1.000000;fill-opacity:0.000000"/>
<polyline points="129.74 , 540.80 129.74 , 12.04 " style="stroke-width:1;stroke:#FFFFFF;fill:#000000;stroke-opacity:1.000000;fill-opacity:0.000000"/>
<polyline points="290.62 , 540.80 290.62 , 12.04 " style="stroke-width:1;stroke:#FFFFFF;fill:#000000;stroke-opacity:1.000000;fill-opacity:0.000000"/>
<polyline points="451.51 , 540.80 451.51 , 12.04 " style="stroke-width:1;stroke:#FFFFFF;fill:#000000;stroke-opacity:1.000000;fill-opacity:0.000000"/>
<polyline points="612.39 , 540.80 612.39 , 12.04 " style="stroke-width:1;stroke:#FFFFFF;fill:#000000;stroke-opacity:1.000000;fill-opacity:0.000000"/>
<rect x="68.09" y="516.77" width="18.54" height="0.00" style="stroke-width:1;stroke:#FFFFFF;fill:#333333;stroke-opacity:0.000000;fill-opacity:1.000000" />
<rect x="86.63" y="516.76" width="18.54" height="0.00" style="stroke-width:1;stroke:#FFFFFF;fill:#333333;stroke-opacity:0.000000;fill-opacity:1.000000" />
<rect x="105.18" y="516.74" width="18.54" height="0.02" style="stroke-width:1;stroke:#FFFFFF;fill:#333333;stroke-opacity:0.000000;fill-opacity:1.000000" />
<rect x="123.72" y="516.70" width="18.54" height="0.07" style="stroke-width:1;stroke:#FFFFFF;fill:#333333;stroke-opacity:0.000000;fill-opacity:1.000000" />
<rect x="142.27" y="516.67" width="18.54" height="0.10" style="stroke-width:1;stroke:#FFFFFF;fill:#333333;stroke-opacity:0.000000;fill-opacity:1.000000" />
<rect x="160.81" y="516.59" width="18.54" height="0.18" style="stroke-width:1;stroke:#FFFFFF;fill:#333333;stroke-opacity:0.000000;fill-opacity:1.000000" />
<rect x="179.36" y="516.46" width="18.54" height="0.31" style="stroke-width:1;stroke:#FFFFFF;fill:#333333;stroke-opacity:0.000000;fill-opacity:1.000000" />
<rect x="197.90" y="516.25" width="18.54" height="0.52" style="stroke-width:1;stroke:#FFFFFF;fill:#333333;stroke-opacity:0.000000;fill-opacity:1.000000" />
<rect x="216.45" y="515.59" width="18.54" height="1.18" style="stroke-width:1;stroke:#FFFFFF;fill:#333333;stroke-opacity:0.000000;fill-opacity:1.000000" />
<rect x="234.99" y="513.84" width="18.54" height="2.93" style="stroke-width:1;stroke:#FFFFFF;fill:#333333;stroke-opacity:0.000000;fill-opacity:1.000000" />
<rect x="253.53" y="508.22" width="18.54" height="8.55" style="stroke-width:1;stroke:#FFFFFF;fill:#333333;stroke-opacity:0.000000;fill-opacity:1.000000" />
<rect x="272.08" y="492.86" width="18.54" height="23.90" style="stroke-width:1;stroke:#FFFFFF;fill:#333333;stroke-opacity:0.000000;fill-opacity:1.000000" />
<rect x="290.62" y="454.69" width="18.54" height="62.08" style="stroke-width:1;stroke:#FFFFFF;fill:#333333;stroke-opacity:0.000000;fill-opacity:1.000000" />
<rect x="309.17" y="383.93" width="18.54" height="132.84" style="stroke-width:1;stroke:#FFFFFF;fill:#333333;stroke-opacity:0.000000;fill-opacity:1.000000" />
<rect x="327.71" y="284.54" width="18.54" height="232.23" style="stroke-width:1;stroke:#FFFFFF;fill:#333333;stroke-opacity:0.000000;fill-opacity:1.000000" />
<rect x="346.26" y="160.22" width="18.54" height="356.55" style="stroke-width:1;stroke:#FFFFFF;fill:#333333;stroke-opacity:0.000000;fill-opacity:1.000000" />
<rect x="364.80" y="56.45" width="18.54" height="460.32" style="stroke-width:1;stroke:#FFFFFF;fill:#333333;stroke-opacity:0.000000;fill-opacity:1.000000" />
<rect x="383.35" y="36.08" width="18.54" height="480.69" style="stroke-width:1;stroke:#FFFFFF;fill:#333333;stroke-opacity:0.000000;fill-opacity:1.000000" />
<rect x="401.89" y="110.07" width="18.54" height="406.70" style="stroke-width:1;stroke:#FFFFFF;fill:#333333;stroke-opacity:0.000000;fill-opacity:1.000000" />
<rect x="420.43" y="247.48" width="18.54" height="269.28" style="stroke-width:1;stroke:#FFFFFF;fill:#333333;stroke-opacity:0.000000;fill-opacity:1.000000" />
<rect x="438.98" y="361.96" width="18.54" height="154.81" style="stroke-width:1;stroke:#FFFFFF;fill:#333333;stroke-opacity:0.000000;fill-opacity:1.000000" />
<rect x="457.52" y="430.30" width="18.54" height="86.47" style="stroke-width:1;stroke:#FFFFFF;fill:#333333;stroke-opacity:0.000000;fill-opacity:1.000000" />
<rect x="476.07" y="474.03" width="18.54" height="42.74" style="stroke-width:1;stroke:#FFFFFF;fill:#333333;stroke-opacity:0.000000;fill-opacity:1.000000" />
<rect x="494.61" y="496.74" width="18.54" height="20.03" style="stroke-width:1;stroke:#FFFFFF;fill:#333333;stroke-opacity:0.000000;fill-opacity:1.000000" />
<rect x="513.16" y="507.79" width="18.54" height="8.98" style="stroke-width:1;stroke:#FFFFFF;fill:#333333;stroke-opacity:0.000000;fill-opacity:1.000000" />
<rect x="531.70" y="513.27" width="18.54" height="3.50" style="stroke-width:1;stroke:#FFFFFF;fill:#333333;stroke-opacity:0.000000;fill-opacity:1.000000" />
<rect x="550.25" y="515.35" width="18.54" height="1.42" style="stroke-width:1;stroke:#FFFFFF;fill:#333333;stroke-opacity:0.000000;fill-opacity:1.000000" />
<rect x="568.79" y="516.38" width="18.54" height="0.39" style="stroke-width:1;stroke:#FFFFFF;fill:#333333;stroke-opacity:0.000000;fill-opacity:1.000000" />
<rect x="587.33" y="516.68" width="18.54" height="0.09" style="stroke-width:1;stroke:#FFFFFF;fill:#333333;stroke-opacity:0.000000;fill-opacity:1.000000" />
<rect x="605.88" y="516.75" width="18.54" height="0.02" style="stroke-width:1;stroke:#FFFFFF;fill:#333333;stroke-opacity:0.000000;fill-opacity:1.000000" />
<rect x="624.42" y="516.77" width="18.54" height="0.00" style="stroke-width:1;stroke:#FFFFFF;fill:#333333;stroke-opacity:0.000000;fill-opacity:1.000000" />
<rect x="642.97" y="516.77" width="18.54" height="0.00" style="stroke-width:1;stroke:#FFFFFF;fill:#333333;stroke-opacity:0.000000;fill-opacity:1.000000" />
<rect x="661.51" y="516.77" width="18.54" height="0.00" style="stroke-width:1;stroke:#FFFFFF;fill:#333333;stroke-opacity:0.000000;fill-opacity:1.000000" />
<text transform="translate(125.16,555.12) "  style="font-size:10" >-5</text>
<text transform="translate(287.87,555.12) "  style="font-size:10" >0</text>
<text transform="translate(448.76,555.12) "  style="font-size:10" >5</text>
<text transform="translate(606.89,555.12) "  style="font-size:10" >10</text>
<line x1="129.74" y1="545.07" x2="129.74" y2="540.80" style="stroke-width:1;stroke:#7F7F7F;fill:#000000;stroke-opacity:1.000000;fill-opacity:0.000000"/>
<line x1="290.62" y1="545.07" x2="290.62" y2="540.80" style="stroke-width:1;stroke:#7F7F7F;fill:#000000;stroke-opacity:1.000000;fill-opacity:0.000000"/>
<line x1="451.51" y1="545.07" x2="451.51" y2="540.80" style="stroke-width:1;stroke:#7F7F7F;fill:#000000;stroke-opacity:1.000000;fill-opacity:0.000000"/>
<line x1="612.39" y1="545.07" x2="612.39" y2="540.80" style="stroke-width:1;stroke:#7F7F7F;fill:#000000;stroke-opacity:1.000000;fill-opacity:0.000000"/>
<text transform="translate(303.28,569.13) "  style="font-size:12" >Partition coefficient xlogP</text>
</svg>
