<?xml version="1.0"?>
<svg xmlns="http://www.w3.org/2000/svg" width="722.70" height="578.16" viewBox="0,0,722.70,578.16">
<desc>R SVG Plot!</desc>
<rect width="100%" height="100%" style="fill:#FFFFFF"/>
<polygon points="0.00 , 0.00 722.70 , 0.00 722.70 , 578.16 0.00 , 578.16 " style="stroke-width:1;stroke:#FFFFFF;fill:#FFFFFF;stroke-opacity:0.000000;fill-opacity:1.000000" />
<text transform="translate(17.05,520.37) "  style="font-size:10" >0%</text>
<text transform="translate(14.59,443.22) "  style="font-size:10" >2%</text>
<text transform="translate(14.59,366.07) "  style="font-size:10" >4%</text>
<text transform="translate(14.59,288.92) "  style="font-size:10" >6%</text>
<text transform="translate(14.59,211.77) "  style="font-size:10" >8%</text>
<text transform="translate(9.09,134.62) "  style="font-size:10" >10%</text>
<text transform="translate(9.09,57.47) "  style="font-size:10" >12%</text>
<line x1="33.22" y1="516.77" x2="37.49" y2="516.77" style="stroke-width:1;stroke:#7F7F7F;fill:#000000;stroke-opacity:1.000000;fill-opacity:0.000000"/>
<line x1="33.22" y1="439.62" x2="37.49" y2="439.62" style="stroke-width:1;stroke:#7F7F7F;fill:#000000;stroke-opacity:1.000000;fill-opacity:0.000000"/>
<line x1="33.22" y1="362.47" x2="37.49" y2="362.47" style="stroke-width:1;stroke:#7F7F7F;fill:#000000;stroke-opacity:1.000000;fill-opacity:0.000000"/>
<line x1="33.22" y1="285.32" x2="37.49" y2="285.32" style="stroke-width:1;stroke:#7F7F7F;fill:#000000;stroke-opacity:1.000000;fill-opacity:0.000000"/>
<line x1="33.22" y1="208.17" x2="37.49" y2="208.17" style="stroke-width:1;stroke:#7F7F7F;fill:#000000;stroke-opacity:1.000000;fill-opacity:0.000000"/>
<line x1="33.22" y1="131.02" x2="37.49" y2="131.02" style="stroke-width:1;stroke:#7F7F7F;fill:#000000;stroke-opacity:1.000000;fill-opacity:0.000000"/>
<line x1="33.22" y1="53.87" x2="37.49" y2="53.87" style="stroke-width:1;stroke:#7F7F7F;fill:#000000;stroke-opacity:1.000000;fill-opacity:0.000000"/>
<polygon points="37.49 , 540.80 37.49 , 12.04 710.65 , 12.04 710.65 , 540.80 " style="stroke-width:1;stroke:#FFFFFF;fill:#E5E5E5;stroke-opacity:0.000000;fill-opacity:1.000000" />
<polyline points="37.49 , 478.19 710.65 , 478.19 " style="stroke-width:0;stroke:#F2F2F2;fill:#000000;stroke-opacity:1.000000;fill-opacity:0.000000"/>
<polyline points="37.49 , 401.04 710.65 , 401.04 " style="stroke-width:0;stroke:#F2F2F2;fill:#000000;stroke-opacity:1.000000;fill-opacity:0.000000"/>
<polyline points="37.49 , 323.89 710.65 , 323.89 " style="stroke-width:0;stroke:#F2F2F2;fill:#000000;stroke-opacity:1.000000;fill-opacity:0.000000"/>
<polyline points="37.49 , 246.74 710.65 , 246.74 " style="stroke-width:0;stroke:#F2F2F2;fill:#000000;stroke-opacity:1.000000;fill-opacity:0.000000"/>
<polyline points="37.49 , 169.60 710.65 , 169.60 " style="stroke-width:0;stroke:#F2F2F2;fill:#000000;stroke-opacity:1.000000;fill-opacity:0.000000"/>
<polyline points="37.49 , 92.45 710.65 , 92.45 " style="stroke-width:0;stroke:#F2F2F2;fill:#000000;stroke-opacity:1.000000;fill-opacity:0.000000"/>
<polyline points="37.49 , 15.30 710.65 , 15.30 " style="stroke-width:0;stroke:#F2F2F2;fill:#000000;stroke-opacity:1.000000;fill-opacity:0.000000"/>
<polyline points="85.45 , 540.80 85.45 , 12.04 " style="stroke-width:0;stroke:#F2F2F2;fill:#000000;stroke-opacity:1.000000;fill-opacity:0.000000"/>
<polyline points="194.33 , 540.80 194.33 , 12.04 " style="stroke-width:0;stroke:#F2F2F2;fill:#000000;stroke-opacity:1.000000;fill-opacity:0.000000"/>
<polyline points="303.22 , 540.80 303.22 , 12.04 " style="stroke-width:0;stroke:#F2F2F2;fill:#000000;stroke-opacity:1.000000;fill-opacity:0.000000"/>
<polyline points="412.11 , 540.80 412.11 , 12.04 " style="stroke-width:0;stroke:#F2F2F2;fill:#000000;stroke-opacity:1.000000;fill-opacity:0.000000"/>
<polyline points="521.00 , 540.80 521.00 , 12.04 " style="stroke-width:0;stroke:#F2F2F2;fill:#000000;stroke-opacity:1.000000;fill-opacity:0.000000"/>
<polyline points="629.89 , 540.80 629.89 , 12.04 " style="stroke-width:0;stroke:#F2F2F2;fill:#000000;stroke-opacity:1.000000;fill-opacity:0.000000"/>
<polyline points="37.49 , 516.77 710.65 , 516.77 " style="stroke-width:1;stroke:#FFFFFF;fill:#000000;stroke-opacity:1.000000;fill-opacity:0.000000"/>
<polyline points="37.49 , 439.62 710.65 , 439.62 " style="stroke-width:1;stroke:#FFFFFF;fill:#000000;stroke-opacity:1.000000;fill-opacity:0.000000"/>
<polyline points="37.49 , 362.47 710.65 , 362.47 " style="stroke-width:1;stroke:#FFFFFF;fill:#000000;stroke-opacity:1.000000;fill-opacity:0.000000"/>
<polyline points="37.49 , 285.32 710.65 , 285.32 " style="stroke-width:1;stroke:#FFFFFF;fill:#000000;stroke-opacity:1.000000;fill-opacity:0.000000"/>
<polyline points="37.49 , 208.17 710.65 , 208.17 " style="stroke-width:1;stroke:#FFFFFF;fill:#000000;stroke-opacity:1.000000;fill-opacity:0.000000"/>
<polyline points="37.49 , 131.02 710.65 , 131.02 " style="stroke-width:1;stroke:#FFFFFF;fill:#000000;stroke-opacity:1.000000;fill-opacity:0.000000"/>
<polyline points="37.49 , 53.87 710.65 , 53.87 " style="stroke-width:1;stroke:#FFFFFF;fill:#000000;stroke-opacity:1.000000;fill-opacity:0.000000"/>
<polyline points="139.89 , 540.80 139.89 , 12.04 " style="stroke-width:1;stroke:#FFFFFF;fill:#000000;stroke-opacity:1.000000;fill-opacity:0.000000"/>
<polyline points="248.78 , 540.80 248.78 , 12.04 " style="stroke-width:1;stroke:#FFFFFF;fill:#000000;stroke-opacity:1.000000;fill-opacity:0.000000"/>
<polyline points="357.67 , 540.80 357.67 , 12.04 " style="stroke-width:1;stroke:#FFFFFF;fill:#000000;stroke-opacity:1.000000;fill-opacity:0.000000"/>
<polyline points="466.56 , 540.80 466.56 , 12.04 " style="stroke-width:1;stroke:#FFFFFF;fill:#000000;stroke-opacity:1.000000;fill-opacity:0.000000"/>
<polyline points="575.44 , 540.80 575.44 , 12.04 " style="stroke-width:1;stroke:#FFFFFF;fill:#000000;stroke-opacity:1.000000;fill-opacity:0.000000"/>
<polyline points="684.33 , 540.80 684.33 , 12.04 " style="stroke-width:1;stroke:#FFFFFF;fill:#000000;stroke-opacity:1.000000;fill-opacity:0.000000"/>
<rect x="68.09" y="516.77" width="18.54" height="0.00" style="stroke-width:1;stroke:#FFFFFF;fill:#333333;stroke-opacity:0.000000;fill-opacity:1.000000" />
<rect x="86.63" y="516.75" width="18.54" height="0.02" style="stroke-width:1;stroke:#FFFFFF;fill:#333333;stroke-opacity:0.000000;fill-opacity:1.000000" />
<rect x="105.18" y="516.64" width="18.54" height="0.13" style="stroke-width:1;stroke:#FFFFFF;fill:#333333;stroke-opacity:0.000000;fill-opacity:1.000000" />
<rect x="123.72" y="516.27" width="18.54" height="0.49" style="stroke-width:1;stroke:#FFFFFF;fill:#333333;stroke-opacity:0.000000;fill-opacity:1.000000" />
<rect x="142.27" y="515.53" width="18.54" height="1.23" style="stroke-width:1;stroke:#FFFFFF;fill:#333333;stroke-opacity:0.000000;fill-opacity:1.000000" />
<rect x="160.81" y="514.31" width="18.54" height="2.46" style="stroke-width:1;stroke:#FFFFFF;fill:#333333;stroke-opacity:0.000000;fill-opacity:1.000000" />
<rect x="179.36" y="512.14" width="18.54" height="4.63" style="stroke-width:1;stroke:#FFFFFF;fill:#333333;stroke-opacity:0.000000;fill-opacity:1.000000" />
<rect x="197.90" y="509.53" width="18.54" height="7.24" style="stroke-width:1;stroke:#FFFFFF;fill:#333333;stroke-opacity:0.000000;fill-opacity:1.000000" />
<rect x="216.45" y="506.65" width="18.54" height="10.11" style="stroke-width:1;stroke:#FFFFFF;fill:#333333;stroke-opacity:0.000000;fill-opacity:1.000000" />
<rect x="234.99" y="501.83" width="18.54" height="14.94" style="stroke-width:1;stroke:#FFFFFF;fill:#333333;stroke-opacity:0.000000;fill-opacity:1.000000" />
<rect x="253.53" y="489.46" width="18.54" height="27.31" style="stroke-width:1;stroke:#FFFFFF;fill:#333333;stroke-opacity:0.000000;fill-opacity:1.000000" />
<rect x="272.08" y="473.75" width="18.54" height="43.02" style="stroke-width:1;stroke:#FFFFFF;fill:#333333;stroke-opacity:0.000000;fill-opacity:1.000000" />
<rect x="290.62" y="449.98" width="18.54" height="66.78" style="stroke-width:1;stroke:#FFFFFF;fill:#333333;stroke-opacity:0.000000;fill-opacity:1.000000" />
<rect x="309.17" y="412.37" width="18.54" height="104.40" style="stroke-width:1;stroke:#FFFFFF;fill:#333333;stroke-opacity:0.000000;fill-opacity:1.000000" />
<rect x="327.71" y="359.93" width="18.54" height="156.83" style="stroke-width:1;stroke:#FFFFFF;fill:#333333;stroke-opacity:0.000000;fill-opacity:1.000000" />
<rect x="346.26" y="296.95" width="18.54" height="219.81" style="stroke-width:1;stroke:#FFFFFF;fill:#333333;stroke-opacity:0.000000;fill-opacity:1.000000" />
<rect x="364.80" y="226.14" width="18.54" height="290.63" style="stroke-width:1;stroke:#FFFFFF;fill:#333333;stroke-opacity:0.000000;fill-opacity:1.000000" />
<rect x="383.35" y="137.52" width="18.54" height="379.25" style="stroke-width:1;stroke:#FFFFFF;fill:#333333;stroke-opacity:0.000000;fill-opacity:1.000000" />
<rect x="401.89" y="79.31" width="18.54" height="437.46" style="stroke-width:1;stroke:#FFFFFF;fill:#333333;stroke-opacity:0.000000;fill-opacity:1.000000" />
<rect x="420.43" y="57.11" width="18.54" height="459.66" style="stroke-width:1;stroke:#FFFFFF;fill:#333333;stroke-opacity:0.000000;fill-opacity:1.000000" />
<rect x="438.98" y="36.08" width="18.54" height="480.69" style="stroke-width:1;stroke:#FFFFFF;fill:#333333;stroke-opacity:0.000000;fill-opacity:1.000000" />
<rect x="457.52" y="179.07" width="18.54" height="337.70" style="stroke-width:1;stroke:#FFFFFF;fill:#333333;stroke-opacity:0.000000;fill-opacity:1.000000" />
<rect x="476.07" y="324.71" width="18.54" height="192.06" style="stroke-width:1;stroke:#FFFFFF;fill:#333333;stroke-opacity:0.000000;fill-opacity:1.000000" />
<rect x="494.61" y="345.39" width="18.54" height="171.38" style="stroke-width:1;stroke:#FFFFFF;fill:#333333;stroke-opacity:0.000000;fill-opacity:1.000000" />
<rect x="513.16" y="371.90" width="18.54" height="144.87" style="stroke-width:1;stroke:#FFFFFF;fill:#333333;stroke-opacity:0.000000;fill-opacity:1.000000" />
<rect x="531.70" y="399.68" width="18.54" height="117.09" style="stroke-width:1;stroke:#FFFFFF;fill:#333333;stroke-opacity:0.000000;fill-opacity:1.000000" />
<rect x="550.25" y="419.25" width="18.54" height="97.52" style="stroke-width:1;stroke:#FFFFFF;fill:#333333;stroke-opacity:0.000000;fill-opacity:1.000000" />
<rect x="568.79" y="459.68" width="18.54" height="57.09" style="stroke-width:1;stroke:#FFFFFF;fill:#333333;stroke-opacity:0.000000;fill-opacity:1.000000" />
<rect x="587.33" y="487.82" width="18.54" height="28.95" style="stroke-width:1;stroke:#FFFFFF;fill:#333333;stroke-opacity:0.000000;fill-opacity:1.000000" />
<rect x="605.88" y="513.07" width="18.54" height="3.70" style="stroke-width:1;stroke:#FFFFFF;fill:#333333;stroke-opacity:0.000000;fill-opacity:1.000000" />
<rect x="624.42" y="516.75" width="18.54" height="0.02" style="stroke-width:1;stroke:#FFFFFF;fill:#333333;stroke-opacity:0.000000;fill-opacity:1.000000" />
<rect x="642.97" y="516.77" width="18.54" height="0.00" style="stroke-width:1;stroke:#FFFFFF;fill:#333333;stroke-opacity:0.000000;fill-opacity:1.000000" />
<rect x="661.51" y="516.77" width="18.54" height="0.00" style="stroke-width:1;stroke:#FFFFFF;fill:#333333;stroke-opacity:0.000000;fill-opacity:1.000000" />
<text transform="translate(131.64,555.12) "  style="font-size:10" >100</text>
<text transform="translate(240.53,555.12) "  style="font-size:10" >200</text>
<text transform="translate(349.42,555.12) "  style="font-size:10" >300</text>
<text transform="translate(458.31,555.12) "  style="font-size:10" >400</text>
<text transform="translate(567.19,555.12) "  style="font-size:10" >500</text>
<text transform="translate(676.08,555.12) "  style="font-size:10" >600</text>
<line x1="139.89" y1="545.07" x2="139.89" y2="540.80" style="stroke-width:1;stroke:#7F7F7F;fill:#000000;stroke-opacity:1.000000;fill-opacity:0.000000"/>
<line x1="248.78" y1="545.07" x2="248.78" y2="540.80" style="stroke-width:1;stroke:#7F7F7F;fill:#000000;stroke-opacity:1.000000;fill-opacity:0.000000"/>
<line x1="357.67" y1="545.07" x2="357.67" y2="540.80" style="stroke-width:1;stroke:#7F7F7F;fill:#000000;stroke-opacity:1.000000;fill-opacity:0.000000"/>
<line x1="466.56" y1="545.07" x2="466.56" y2="540.80" style="stroke-width:1;stroke:#7F7F7F;fill:#000000;stroke-opacity:1.000000;fill-opacity:0.000000"/>
<line x1="575.44" y1="545.07" x2="575.44" y2="540.80" style="stroke-width:1;stroke:#7F7F7F;fill:#000000;stroke-opacity:1.000000;fill-opacity:0.000000"/>
<line x1="684.33" y1="545.07" x2="684.33" y2="540.80" style="stroke-width:1;stroke:#7F7F7F;fill:#000000;stroke-opacity:1.000000;fill-opacity:0.000000"/>
<text transform="translate(304.10,569.13) "  style="font-size:12" >Molecular weight (g/mol)</text>
</svg>
