<?xml version="1.0"?>
<svg xmlns="http://www.w3.org/2000/svg" width="722.70" height="578.16" viewBox="0,0,722.70,578.16">
<desc>R SVG Plot!</desc>
<rect width="100%" height="100%" style="fill:#FFFFFF"/>
<polygon points="0.00 , 0.00 722.70 , 0.00 722.70 , 578.16 0.00 , 578.16 " style="stroke-width:1;stroke:#FFFFFF;fill:#FFFFFF;stroke-opacity:0.000000;fill-opacity:1.000000" />
<text transform="translate(17.05,520.37) "  style="font-size:10" >0%</text>
<text transform="translate(9.09,431.25) "  style="font-size:10" >10%</text>
<text transform="translate(9.09,342.14) "  style="font-size:10" >20%</text>
<text transform="translate(9.09,253.02) "  style="font-size:10" >30%</text>
<text transform="translate(9.09,163.91) "  style="font-size:10" >40%</text>
<text transform="translate(9.09,74.79) "  style="font-size:10" >50%</text>
<line x1="33.22" y1="516.77" x2="37.49" y2="516.77" style="stroke-width:1;stroke:#7F7F7F;fill:#000000;stroke-opacity:1.000000;fill-opacity:0.000000"/>
<line x1="33.22" y1="427.65" x2="37.49" y2="427.65" style="stroke-width:1;stroke:#7F7F7F;fill:#000000;stroke-opacity:1.000000;fill-opacity:0.000000"/>
<line x1="33.22" y1="338.54" x2="37.49" y2="338.54" style="stroke-width:1;stroke:#7F7F7F;fill:#000000;stroke-opacity:1.000000;fill-opacity:0.000000"/>
<line x1="33.22" y1="249.42" x2="37.49" y2="249.42" style="stroke-width:1;stroke:#7F7F7F;fill:#000000;stroke-opacity:1.000000;fill-opacity:0.000000"/>
<line x1="33.22" y1="160.31" x2="37.49" y2="160.31" style="stroke-width:1;stroke:#7F7F7F;fill:#000000;stroke-opacity:1.000000;fill-opacity:0.000000"/>
<line x1="33.22" y1="71.19" x2="37.49" y2="71.19" style="stroke-width:1;stroke:#7F7F7F;fill:#000000;stroke-opacity:1.000000;fill-opacity:0.000000"/>
<polygon points="37.49 , 540.80 37.49 , 12.04 710.65 , 12.04 710.65 , 540.80 " style="stroke-width:1;stroke:#FFFFFF;fill:#E5E5E5;stroke-opacity:0.000000;fill-opacity:1.000000" />
<polyline points="37.49 , 472.21 710.65 , 472.21 " style="stroke-width:0;stroke:#F2F2F2;fill:#000000;stroke-opacity:1.000000;fill-opacity:0.000000"/>
<polyline points="37.49 , 383.10 710.65 , 383.10 " style="stroke-width:0;stroke:#F2F2F2;fill:#000000;stroke-opacity:1.000000;fill-opacity:0.000000"/>
<polyline points="37.49 , 293.98 710.65 , 293.98 " style="stroke-width:0;stroke:#F2F2F2;fill:#000000;stroke-opacity:1.000000;fill-opacity:0.000000"/>
<polyline points="37.49 , 204.87 710.65 , 204.87 " style="stroke-width:0;stroke:#F2F2F2;fill:#000000;stroke-opacity:1.000000;fill-opacity:0.000000"/>
<polyline points="37.49 , 115.75 710.65 , 115.75 " style="stroke-width:0;stroke:#F2F2F2;fill:#000000;stroke-opacity:1.000000;fill-opacity:0.000000"/>
<polyline points="37.49 , 26.64 710.65 , 26.64 " style="stroke-width:0;stroke:#F2F2F2;fill:#000000;stroke-opacity:1.000000;fill-opacity:0.000000"/>
<polyline points="146.69 , 540.80 146.69 , 12.04 " style="stroke-width:0;stroke:#F2F2F2;fill:#000000;stroke-opacity:1.000000;fill-opacity:0.000000"/>
<polyline points="256.98 , 540.80 256.98 , 12.04 " style="stroke-width:0;stroke:#F2F2F2;fill:#000000;stroke-opacity:1.000000;fill-opacity:0.000000"/>
<polyline points="367.26 , 540.80 367.26 , 12.04 " style="stroke-width:0;stroke:#F2F2F2;fill:#000000;stroke-opacity:1.000000;fill-opacity:0.000000"/>
<polyline points="477.54 , 540.80 477.54 , 12.04 " style="stroke-width:0;stroke:#F2F2F2;fill:#000000;stroke-opacity:1.000000;fill-opacity:0.000000"/>
<polyline points="587.83 , 540.80 587.83 , 12.04 " style="stroke-width:0;stroke:#F2F2F2;fill:#000000;stroke-opacity:1.000000;fill-opacity:0.000000"/>
<polyline points="698.11 , 540.80 698.11 , 12.04 " style="stroke-width:0;stroke:#F2F2F2;fill:#000000;stroke-opacity:1.000000;fill-opacity:0.000000"/>
<polyline points="37.49 , 516.77 710.65 , 516.77 " style="stroke-width:1;stroke:#FFFFFF;fill:#000000;stroke-opacity:1.000000;fill-opacity:0.000000"/>
<polyline points="37.49 , 427.65 710.65 , 427.65 " style="stroke-width:1;stroke:#FFFFFF;fill:#000000;stroke-opacity:1.000000;fill-opacity:0.000000"/>
<polyline points="37.49 , 338.54 710.65 , 338.54 " style="stroke-width:1;stroke:#FFFFFF;fill:#000000;stroke-opacity:1.000000;fill-opacity:0.000000"/>
<polyline points="37.49 , 249.42 710.65 , 249.42 " style="stroke-width:1;stroke:#FFFFFF;fill:#000000;stroke-opacity:1.000000;fill-opacity:0.000000"/>
<polyline points="37.49 , 160.31 710.65 , 160.31 " style="stroke-width:1;stroke:#FFFFFF;fill:#000000;stroke-opacity:1.000000;fill-opacity:0.000000"/>
<polyline points="37.49 , 71.19 710.65 , 71.19 " style="stroke-width:1;stroke:#FFFFFF;fill:#000000;stroke-opacity:1.000000;fill-opacity:0.000000"/>
<polyline points="91.55 , 540.80 91.55 , 12.04 " style="stroke-width:1;stroke:#FFFFFF;fill:#000000;stroke-opacity:1.000000;fill-opacity:0.000000"/>
<polyline points="201.84 , 540.80 201.84 , 12.04 " style="stroke-width:1;stroke:#FFFFFF;fill:#000000;stroke-opacity:1.000000;fill-opacity:0.000000"/>
<polyline points="312.12 , 540.80 312.12 , 12.04 " style="stroke-width:1;stroke:#FFFFFF;fill:#000000;stroke-opacity:1.000000;fill-opacity:0.000000"/>
<polyline points="422.40 , 540.80 422.40 , 12.04 " style="stroke-width:1;stroke:#FFFFFF;fill:#000000;stroke-opacity:1.000000;fill-opacity:0.000000"/>
<polyline points="532.68 , 540.80 532.68 , 12.04 " style="stroke-width:1;stroke:#FFFFFF;fill:#000000;stroke-opacity:1.000000;fill-opacity:0.000000"/>
<polyline points="642.97 , 540.80 642.97 , 12.04 " style="stroke-width:1;stroke:#FFFFFF;fill:#000000;stroke-opacity:1.000000;fill-opacity:0.000000"/>
<rect x="68.09" y="516.77" width="18.54" height="0.00" style="stroke-width:1;stroke:#FFFFFF;fill:#333333;stroke-opacity:0.000000;fill-opacity:1.000000" />
<rect x="86.63" y="516.77" width="18.54" height="0.00" style="stroke-width:1;stroke:#FFFFFF;fill:#333333;stroke-opacity:0.000000;fill-opacity:1.000000" />
<rect x="105.18" y="516.77" width="18.54" height="0.00" style="stroke-width:1;stroke:#FFFFFF;fill:#333333;stroke-opacity:0.000000;fill-opacity:1.000000" />
<rect x="123.72" y="516.77" width="18.54" height="0.00" style="stroke-width:1;stroke:#FFFFFF;fill:#333333;stroke-opacity:0.000000;fill-opacity:1.000000" />
<rect x="142.27" y="516.77" width="18.54" height="0.00" style="stroke-width:1;stroke:#FFFFFF;fill:#333333;stroke-opacity:0.000000;fill-opacity:1.000000" />
<rect x="160.81" y="516.77" width="18.54" height="0.00" style="stroke-width:1;stroke:#FFFFFF;fill:#333333;stroke-opacity:0.000000;fill-opacity:1.000000" />
<rect x="179.36" y="516.77" width="18.54" height="0.00" style="stroke-width:1;stroke:#FFFFFF;fill:#333333;stroke-opacity:0.000000;fill-opacity:1.000000" />
<rect x="197.90" y="516.77" width="18.54" height="0.00" style="stroke-width:1;stroke:#FFFFFF;fill:#333333;stroke-opacity:0.000000;fill-opacity:1.000000" />
<rect x="216.45" y="516.77" width="18.54" height="0.00" style="stroke-width:1;stroke:#FFFFFF;fill:#333333;stroke-opacity:0.000000;fill-opacity:1.000000" />
<rect x="234.99" y="516.77" width="18.54" height="0.00" style="stroke-width:1;stroke:#FFFFFF;fill:#333333;stroke-opacity:0.000000;fill-opacity:1.000000" />
<rect x="253.53" y="516.77" width="18.54" height="0.00" style="stroke-width:1;stroke:#FFFFFF;fill:#333333;stroke-opacity:0.000000;fill-opacity:1.000000" />
<rect x="272.08" y="516.76" width="18.54" height="0.00" style="stroke-width:1;stroke:#FFFFFF;fill:#333333;stroke-opacity:0.000000;fill-opacity:1.000000" />
<rect x="290.62" y="516.76" width="18.54" height="0.00" style="stroke-width:1;stroke:#FFFFFF;fill:#333333;stroke-opacity:0.000000;fill-opacity:1.000000" />
<rect x="309.17" y="516.76" width="18.54" height="0.00" style="stroke-width:1;stroke:#FFFFFF;fill:#333333;stroke-opacity:0.000000;fill-opacity:1.000000" />
<rect x="327.71" y="516.76" width="18.54" height="0.00" style="stroke-width:1;stroke:#FFFFFF;fill:#333333;stroke-opacity:0.000000;fill-opacity:1.000000" />
<rect x="346.26" y="516.76" width="18.54" height="0.00" style="stroke-width:1;stroke:#FFFFFF;fill:#333333;stroke-opacity:0.000000;fill-opacity:1.000000" />
<rect x="364.80" y="516.76" width="18.54" height="0.01" style="stroke-width:1;stroke:#FFFFFF;fill:#333333;stroke-opacity:0.000000;fill-opacity:1.000000" />
<rect x="383.35" y="516.75" width="18.54" height="0.02" style="stroke-width:1;stroke:#FFFFFF;fill:#333333;stroke-opacity:0.000000;fill-opacity:1.000000" />
<rect x="401.89" y="516.73" width="18.54" height="0.03" style="stroke-width:1;stroke:#FFFFFF;fill:#333333;stroke-opacity:0.000000;fill-opacity:1.000000" />
<rect x="420.43" y="516.70" width="18.54" height="0.07" style="stroke-width:1;stroke:#FFFFFF;fill:#333333;stroke-opacity:0.000000;fill-opacity:1.000000" />
<rect x="438.98" y="516.69" width="18.54" height="0.07" style="stroke-width:1;stroke:#FFFFFF;fill:#333333;stroke-opacity:0.000000;fill-opacity:1.000000" />
<rect x="457.52" y="516.68" width="18.54" height="0.08" style="stroke-width:1;stroke:#FFFFFF;fill:#333333;stroke-opacity:0.000000;fill-opacity:1.000000" />
<rect x="476.07" y="516.62" width="18.54" height="0.15" style="stroke-width:1;stroke:#FFFFFF;fill:#333333;stroke-opacity:0.000000;fill-opacity:1.000000" />
<rect x="494.61" y="515.77" width="18.54" height="1.00" style="stroke-width:1;stroke:#FFFFFF;fill:#333333;stroke-opacity:0.000000;fill-opacity:1.000000" />
<rect x="513.16" y="513.47" width="18.54" height="3.29" style="stroke-width:1;stroke:#FFFFFF;fill:#333333;stroke-opacity:0.000000;fill-opacity:1.000000" />
<rect x="531.70" y="512.55" width="18.54" height="4.22" style="stroke-width:1;stroke:#FFFFFF;fill:#333333;stroke-opacity:0.000000;fill-opacity:1.000000" />
<rect x="550.25" y="512.89" width="18.54" height="3.88" style="stroke-width:1;stroke:#FFFFFF;fill:#333333;stroke-opacity:0.000000;fill-opacity:1.000000" />
<rect x="568.79" y="469.16" width="18.54" height="47.61" style="stroke-width:1;stroke:#FFFFFF;fill:#333333;stroke-opacity:0.000000;fill-opacity:1.000000" />
<rect x="587.33" y="391.12" width="18.54" height="125.65" style="stroke-width:1;stroke:#FFFFFF;fill:#333333;stroke-opacity:0.000000;fill-opacity:1.000000" />
<rect x="605.88" y="292.43" width="18.54" height="224.33" style="stroke-width:1;stroke:#FFFFFF;fill:#333333;stroke-opacity:0.000000;fill-opacity:1.000000" />
<rect x="624.42" y="36.08" width="18.54" height="480.69" style="stroke-width:1;stroke:#FFFFFF;fill:#333333;stroke-opacity:0.000000;fill-opacity:1.000000" />
<rect x="642.97" y="516.74" width="18.54" height="0.02" style="stroke-width:1;stroke:#FFFFFF;fill:#333333;stroke-opacity:0.000000;fill-opacity:1.000000" />
<rect x="661.51" y="516.77" width="18.54" height="0.00" style="stroke-width:1;stroke:#FFFFFF;fill:#333333;stroke-opacity:0.000000;fill-opacity:1.000000" />
<text transform="translate(81.47,555.12) "  style="font-size:10" >-500</text>
<text transform="translate(191.75,555.12) "  style="font-size:10" >-400</text>
<text transform="translate(302.04,555.12) "  style="font-size:10" >-300</text>
<text transform="translate(412.32,555.12) "  style="font-size:10" >-200</text>
<text transform="translate(522.60,555.12) "  style="font-size:10" >-100</text>
<text transform="translate(640.22,555.12) "  style="font-size:10" >0</text>
<line x1="91.55" y1="545.07" x2="91.55" y2="540.80" style="stroke-width:1;stroke:#7F7F7F;fill:#000000;stroke-opacity:1.000000;fill-opacity:0.000000"/>
<line x1="201.84" y1="545.07" x2="201.84" y2="540.80" style="stroke-width:1;stroke:#7F7F7F;fill:#000000;stroke-opacity:1.000000;fill-opacity:0.000000"/>
<line x1="312.12" y1="545.07" x2="312.12" y2="540.80" style="stroke-width:1;stroke:#7F7F7F;fill:#000000;stroke-opacity:1.000000;fill-opacity:0.000000"/>
<line x1="422.40" y1="545.07" x2="422.40" y2="540.80" style="stroke-width:1;stroke:#7F7F7F;fill:#000000;stroke-opacity:1.000000;fill-opacity:0.000000"/>
<line x1="532.68" y1="545.07" x2="532.68" y2="540.80" style="stroke-width:1;stroke:#7F7F7F;fill:#000000;stroke-opacity:1.000000;fill-opacity:0.000000"/>
<line x1="642.97" y1="545.07" x2="642.97" y2="540.80" style="stroke-width:1;stroke:#7F7F7F;fill:#000000;stroke-opacity:1.000000;fill-opacity:0.000000"/>
<text transform="translate(296.73,569.13) "  style="font-size:12" >Polar desolvation (kcal/mol)</text>
</svg>
